# xmcd
#
# Track frame offsets: 
#        150
#        14405
#        34625
#        55944
#        74723
#        88482
#        109464
#        126426
#        150309
#        167637
#        183746
#
# Disc length: 3077 seconds
#
# Revision: 0
# Processed by: cddbd v1.4PL0 Copyright (c) Steve Scherf et al.
# Submitted via: ExactAudioCopy v0.95a3
#
DISCID=9f0c030b
DTITLE=Musica - Approved, But Not Funded
DYEAR=2002
DGENRE=Comedy
TTITLE0=One More Memo
TTITLE1=Old Friends, New Data
TTITLE2=Too Much Information
TTITLE3=Choose to Use
TTITLE4=Paddy's Blues
TTITLE5=Approved, But Not Funded
TTITLE6=Roll Over Sprague Dawley
TTITLE7=Killed By Toxicology
TTITLE8=p =.055
TTITLE9=Holy Trinity (Talking Tenure Track Blues)
TTITLE10=ISS Theme
EXTD=
EXTT0=
EXTT1=
EXTT2=
EXTT3=
EXTT4=
EXTT5=
EXTT6=
EXTT7=
EXTT8=
EXTT9=
EXTT10=
PLAYORDER=
